<svg version="1.1" xmlns="http://www.w3.org/2000/svg" viewBox="0 0 150 133">
<title>book</title>
    <path
       d="m 18.618037,127.36996 c -3.977148,-0.79347 -7.969688,-3.06326 -11.3922993,-6.47661 -1.245588,-1.24222 -2.724621,-2.96451 -3.286741,-3.82732 -2.781386,-4.26919 -3.94271,-9.58489 -2.925039,-13.3887 0.679188,-2.53865 1.069436,-6.936739 0.774007,-8.723069 -0.340793,-2.06063 -0.09582,-2.77603 1.868368,-5.45616 1.880449,-2.56588 4.770441,-8.42729 6.245758,-12.6675 0.9921933,-2.85165 1.1217903,-3.51512 1.2725653,-6.51478 l 0.167871,-3.33978 1.278629,-1.62663 c 1.601185,-2.03698 3.470207,-5.79447 5.015078,-10.08235 1.599613,-4.43981 1.880778,-5.94209 1.671744,-8.93217 -0.207346,-2.96589 -0.08372,-3.26412 2.514766,-6.06659 2.148565,-2.31723 3.784706,-5.4475 5.589694,-10.69423 1.111162,-3.22993 1.128006,-3.33251 1.128006,-6.87005 0,-4.04201 -0.253484,-3.39288 2.820286,-7.2223 0.792877,-0.98779 1.746541,-2.72117 2.620227,-4.7625 2.651334,-6.1947399 3.652785,-7.7037099 6.046732,-9.1110799 1.063543,-0.62524004 1.473181,-0.70886004 3.329422,-0.67963004 1.16417,0.0183 2.40595,0.14793004 2.75952,0.28801004 0.43662,0.17298 1.15811,0.14405 2.24896,-0.0902 2.15448,-0.46261004 65.761209,-0.52646004 67.937349,-0.0682 5.7709,1.21526 9.6699,6.88353 8.71447,12.6688699 -0.28271,1.71186 -23.04609,77.37974 -24.51551,81.49213 -1.062882,2.97464 -2.917432,6.643639 -3.993672,7.900979 -1.05807,1.23612 -2.63323,2.13149 -5.01136,2.8486 -1.4721,0.44391 -4.07864,0.48353 -40.599137,0.61708 -41.4601973,0.15161 -39.686934,0.0907 -40.599968,1.39425 -1.3143823,1.87655 0.74178,6.11096 3.679917,7.57833 3.138942,1.56767 0.261516,1.46795 44.836401,1.55384 44.930379,0.0866 42.219719,0.17902 44.796629,-1.52785 0.68262,-0.45215 1.47404,-1.20094 1.75871,-1.66398 0.28467,-0.46303 6.19911,-19.534689 13.14321,-42.381459 9.72439,-31.9942 12.66299,-41.9832 12.78819,-43.4701 l 0.16254,-1.93051 1.71979,1.03387 c 3.94056,2.3689 5.80636,7.14049 4.6748,11.95527 -0.94948,4.03999 -23.28123,77.013969 -24.0882,78.713549 -1.66547,3.50772 -4.64519,6.39428 -8.50773,8.24176 -3.66743,1.75417 -1.4438,1.67303 -45.236159,1.65066 -31.394009,-0.016 -40.046995,-0.092 -41.407824,-0.36348 z M 94.765558,53.307831 c 1.31739,-0.68545 1.90373,-1.63337 2.96586,-4.7949 1.21002,-3.60173 1.25709,-4.04264 0.51642,-4.83765 l -0.53947,-0.57906 H 71.776371 c -27.99037,0 -26.60251,-0.0687 -27.95868,1.38357 -0.56709,0.60727 -2.709539,6.43142 -2.709539,7.36576 0,0.24185 0.246766,0.75344 0.54837,1.13687 l 0.54837,0.69714 h 25.923099 c 21.748207,0 26.038167,-0.0599 26.637567,-0.37173 z m 6.751132,-21.09185 c 1.4747,-0.75764 2.03409,-1.64406 3.09455,-4.90366 0.58038,-1.78396 1.05524,-3.41117 1.05524,-3.61602 0,-0.20486 -0.2481,-0.68787 -0.55133,-1.07337 l -0.55134,-0.70091 -26.289232,0.0699 -26.289227,0.0699 -0.93386,0.90519 c -0.74786,0.72489 -1.14603,1.54182 -1.99902,4.10143 -0.58583,1.75793 -1.06515,3.38837 -1.06515,3.62319 0,0.23482 0.24676,0.74067 0.54837,1.12409 l 0.54837,0.69714 h 25.92735 c 18.647217,0 26.089639,-0.0834 26.505279,-0.29691 z"/>
</svg>
