<svg xmlns="http://www.w3.org/2000/svg" xmlns:xlink="http://www.w3.org/1999/xlink" width="100" height="100" viewBox="0 0 100 100"><g><g transform="translate(50 50) scale(0.69 0.69) rotate(0) translate(-50 -50)" style="fill:#376d3c"><svg fill="#376d3c" xmlns="http://www.w3.org/2000/svg" xmlns:xlink="http://www.w3.org/1999/xlink" version="1.1" x="0px" y="0px" viewBox="0 0 32 32" enable-background="new 0 0 32 32" xml:space="preserve"><path d="M29.918,13.657l-3.859-2.355c-2.111-1.287-5.563-3.396-7.674-4.684l-3.859-2.355c-2.109-1.287-3.836-0.319-3.836,2.152v5.09  c0,0.022,0,0.051,0,0.074H0.5v8.842h10.189c0,0.022,0,0.051,0,0.073v5.089c0,2.473,1.727,3.441,3.836,2.154l3.859-2.356  c2.111-1.288,5.563-3.396,7.674-4.684l3.859-2.355C32.027,17.053,32.027,14.946,29.918,13.657z"></path></svg></g></g></svg>