<svg xmlns="http://www.w3.org/2000/svg" xmlns:xlink="http://www.w3.org/1999/xlink" width="100" height="100" viewBox="0 0 100 100"><g><g transform="translate(50 50) scale(0.69 0.69) rotate(0) translate(-50 -50)" style="fill:#376d3c"><svg fill="#376d3c" xmlns="http://www.w3.org/2000/svg" xmlns:xlink="http://www.w3.org/1999/xlink" version="1.1" x="0px" y="0px" viewBox="0 0 110 110" enable-background="new 0 0 110 110" xml:space="preserve"><g><path d="M70.6,71.4l-3.8,3.8c-0.5,0.5-1.2,0.8-1.9,0.8c-0.7,0-1.4-0.3-1.9-0.8L55,67l-8.1,8.1c-0.5,0.5-1.2,0.8-1.9,0.8   c-0.7,0-1.4-0.3-1.9-0.8l-3.8-3.8c-0.5-0.5-0.8-1.2-0.8-1.9s0.3-1.4,0.8-1.9l8.1-8.1l-8.1-8.1c-0.5-0.5-0.8-1.2-0.8-1.9   c0-0.7,0.3-1.4,0.8-1.9l3.8-3.8c0.5-0.5,1.2-0.8,1.9-0.8c0.7,0,1.4,0.3,1.9,0.8L55,52l8.1-8.1c0.5-0.5,1.2-0.8,1.9-0.8   c0.7,0,1.4,0.3,1.9,0.8l3.8,3.8c0.5,0.5,0.8,1.2,0.8,1.9c0,0.7-0.3,1.4-0.8,1.9l-8.1,8.1l8.1,8.1c0.5,0.5,0.8,1.2,0.8,1.9   S71.1,70.9,70.6,71.4z"></path></g><path d="M55,105C29.9,105,9.5,84.6,9.5,59.5c0-2.1,1.7-3.8,3.8-3.8s3.8,1.7,3.8,3.8c0,20.9,17,37.9,37.9,37.9s37.9-17,37.9-37.9  S75.9,21.7,55,21.7H22c-2.1,0-3.8-1.7-3.8-3.8c0-2.1,1.7-3.8,3.8-3.8h33c25.1,0,45.5,20.4,45.5,45.5C100.5,84.6,80.1,105,55,105z"></path><g><path d="M33.4,8.7l-7.6,7.6c-0.8,0.8-0.8,2.2,0,3.1l7.6,7.6c1.4,1.4,0.4,3.7-1.5,3.7h-4.8c-0.6,0-1.1-0.2-1.5-0.6L14.9,19.4   c-0.8-0.8-0.8-2.2,0-3.1L25.6,5.6C26,5.2,26.5,5,27.1,5h4.8C33.8,5,34.8,7.3,33.4,8.7z"></path></g><path fill="#376d3c" stroke="#376d3c" stroke-width="5" stroke-miterlimit="10" d="M55,55"></path></svg></g></g></svg>