<svg xmlns="http://www.w3.org/2000/svg" xmlns:xlink="http://www.w3.org/1999/xlink" id="Sphere_wireframe_10deg_6r" baseProfile="full" version="1.1" width="800" height="800">

  <title>Sphere wireframe</title>

  <desc>
     Sphere wireframe
     depicted with perspective projection

     viewer distance from center: 6r
     line distancd: 10째
     line width: 2째
     axial tilt: 37.5째
     rotation: 7.5째
     base color: #22326b

     plotted with several adapted cubic bezier-curves
     The plotcurves were calculated by some fancy python code. The bezier-curve
     controlpoints are placed on tangents of the function-curve. They are
     furthermore positioned in a way to minimize the average quadratic distance
     between the bezier-curve and the function. This gives an accuracy, so that
     the deviation is in no point greater than 0.00001.

     about: http://commons.wikimedia.org/wiki/Image:Sphere_wireframe_10deg_6r.svg
     source: http://commons.wikimedia.org/
     rights: GNU Free Documentation license,
             Creative Commons Attribution ShareAlike license
  </desc>

  <defs>
    <radialGradient cx="-0.1" cy="0.1" r="1.2" fx="-0.3" fy="0.6" id="LightSpot_front" gradientUnits="userSpaceOnUse">
      <stop style="stop-color:#b6bbce; stop-opacity:1" offset="0"/>
      <stop style="stop-color:#8a94ba; stop-opacity:1" offset="0.1"/>
      <stop style="stop-color:#5f6c99; stop-opacity:1" offset="0.3"/>
      <stop style="stop-color:#22326b; stop-opacity:1" offset="1"/>
    </radialGradient>

    <radialGradient cx="0.1" cy="-0.1" r="1.2" fx="0.3" fy="-0.6" id="LightSpot_back" gradientUnits="userSpaceOnUse">
      <stop style="stop-color:#b6bbce; stop-opacity:1" offset="0"/>
      <stop style="stop-color:#8a94ba; stop-opacity:1" offset="0.1"/>
      <stop style="stop-color:#5f6c99; stop-opacity:1" offset="0.3"/>
      <stop style="stop-color:#22326b; stop-opacity:1" offset="1"/>
    </radialGradient>
  </defs>

  <g id="sphere" style="fill:#334070; stroke:none" transform="translate(400, 400) scale(400, -400)">
    <g id="back" style="opacity:0.2; fill:url(#LightSpot_back)">
      
      <path d="M 0.01260,-0.47135 C 0.10485,-0.47405 0.19020,-0.50627 0.24409,-0.55870 C 0.29659,-0.60977 0.31366,-0.67461 0.29060,-0.73542 C 0.26723,-0.79707 0.20511,-0.84799 0.12170,-0.87382 C 0.03600,-0.90036 -0.06250,-0.89742 -0.14466,-0.86588 C -0.22423,-0.83532 -0.27980,-0.78126 -0.29589,-0.71878 C -0.31184,-0.65683 -0.28729,-0.59313 -0.22897,-0.54518 C -0.16900,-0.49588 -0.07988,-0.46863 0.01260,-0.47135 Z M 0.01320,-0.45799 C -0.08387,-0.45515 -0.17741,-0.48373 -0.24036,-0.53545 C -0.30157,-0.58573 -0.32736,-0.65254 -0.31064,-0.71752 C -0.29376,-0.78312 -0.23536,-0.83989 -0.15175,-0.87194 C -0.06548,-0.90501 0.03793,-0.90806 0.12788,-0.88019 C 0.21543,-0.85307 0.28063,-0.79961 0.30512,-0.73491 C 0.32926,-0.67113 0.31131,-0.60314 0.25620,-0.54958 C 0.19961,-0.49461 0.11002,-0.46083 0.01320,-0.45799 Z" id="parallel_-70.0_back"/>
      
      <path d="M 0.02354,-0.19114 C 0.20213,-0.19609 0.36757,-0.25693 0.47243,-0.35618 C 0.57371,-0.45206 0.60789,-0.57378 0.56581,-0.68857 C 0.52220,-0.80757 0.40138,-0.90629 0.23803,-0.95636 C 0.07189,-1.00728 -0.11941,-1.00211 -0.27918,-0.94239 C -0.43622,-0.88368 -0.54534,-0.77881 -0.57522,-0.65787 C -0.60402,-0.54129 -0.55619,-0.42191 -0.44451,-0.33180 C -0.32833,-0.23806 -0.15571,-0.18618 0.02354,-0.19114 Z M 0.02402,-0.17660 C -0.15923,-0.17154 -0.33570,-0.22453 -0.45445,-0.32024 C -0.56855,-0.41221 -0.61743,-0.53403 -0.58803,-0.65299 C -0.55750,-0.77653 -0.44586,-0.88366 -0.28520,-0.94359 C -0.12183,-1.00452 0.07373,-1.00975 0.24354,-0.95771 C 0.41052,-0.90654 0.53398,-0.80570 0.57848,-0.68419 C 0.62137,-0.56705 0.58640,-0.44288 0.48291,-0.34506 C 0.37571,-0.24374 0.20659,-0.18164 0.02402,-0.17660 Z" id="parallel_-50.0_back"/>
      
      <path d="M -0.62763,-0.77851 C -0.75657,-0.67456 -0.82221,-0.54237 -0.81166,-0.40795 C -0.80103,-0.27258 -0.71389,-0.14480 -0.56758,-0.05012 C -0.41579,0.04811 -0.21209,0.10311 -0.00000,0.10311 C 0.21209,0.10311 0.41578,0.04811 0.56757,-0.05012 C 0.71388,-0.14480 0.80103,-0.27258 0.81166,-0.40795 C 0.82221,-0.54237 0.75657,-0.67456 0.62763,-0.77851 C 0.63547,-0.77219 0.64322,-0.76575 0.65087,-0.75919 C 0.77449,-0.65320 0.83476,-0.52077 0.82015,-0.38723 C 0.80542,-0.25253 0.71556,-0.12624 0.56800,-0.03293 C 0.41502,0.06380 0.21158,0.11779 -0.00000,0.11779 C -0.21158,0.11779 -0.41502,0.06380 -0.56799,-0.03293 C -0.71555,-0.12624 -0.80542,-0.25253 -0.82015,-0.38723 C -0.83476,-0.52077 -0.77450,-0.65320 -0.65087,-0.75919 C -0.64322,-0.76575 -0.63547,-0.77219 -0.62763,-0.77851 Z" id="parallel_-30.0_back"/>
      
      <path d="M -0.93192,-0.36266 C -0.98645,-0.22254 -0.96032,-0.07469 -0.85820,0.05437 C -0.75220,0.18833 -0.57165,0.29279 -0.35125,0.34763 C -0.12550,0.40380 0.12551,0.40380 0.35125,0.34763 C 0.57166,0.29279 0.75221,0.18832 0.85821,0.05436 C 0.96033,-0.07469 0.98645,-0.22254 0.93192,-0.36266 C 0.93482,-0.35522 0.93756,-0.34790 0.94018,-0.34069 C 0.99079,-0.20102 0.96168,-0.05454 0.85796,0.07293 C 0.75029,0.20525 0.56951,0.30813 0.34979,0.36209 C 0.12482,0.41733 -0.12482,0.41733 -0.34979,0.36209 C -0.56952,0.30813 -0.75029,0.20524 -0.85796,0.07292 C -0.96168,-0.05455 -0.99079,-0.20102 -0.94018,-0.34069 C -0.93756,-0.34790 -0.93482,-0.35522 -0.93192,-0.36266 Z" id="parallel_-10.0_back"/>
      
      <path d="M -0.99669,0.08129 C -0.98452,0.23046 -0.87876,0.37148 -0.70034,0.47632 C -0.51282,0.58651 -0.25984,0.64806 0.00346,0.64752 C 0.26439,0.64698 0.51461,0.58550 0.70045,0.47626 C 0.87880,0.37142 0.98453,0.23043 0.99669,0.08129 C 0.99610,0.08848 0.99543,0.09580 0.99465,0.10326 C 0.97937,0.25047 0.87227,0.38903 0.69425,0.49180 C 0.50744,0.59965 0.25700,0.65976 -0.00344,0.65923 C -0.26157,0.65870 -0.50930,0.59863 -0.69444,0.49170 C -0.87235,0.38893 -0.97938,0.25042 -0.99465,0.10326 C -0.99543,0.09580 -0.99610,0.08848 -0.99669,0.08129 Z" id="parallel_10.0_back"/>
      
      
      <path d="M -0.73002,0.68343 C -0.63920,0.78043 -0.48546,0.85598 -0.29813,0.89561 C -0.10621,0.93621 0.10699,0.93616 0.29884,0.89546 C 0.48586,0.85579 0.63932,0.78031 0.73002,0.68343 C 0.72464,0.68917 0.71918,0.69487 0.71363,0.70052 C 0.62232,0.79354 0.47154,0.86559 0.28919,0.90329 C 0.10276,0.94184 -0.10359,0.94179 -0.28995,0.90314 C -0.47197,0.86539 -0.62246,0.79340 -0.71363,0.70052 C -0.71918,0.69487 -0.72464,0.68917 -0.73002,0.68343 Z" id="parallel_40.0_back"/>
      
      <path d="M -0.23596,0.97176 C -0.08667,1.00801 0.08664,1.00802 0.23596,0.97176 C 0.21955,0.97575 0.20223,0.97951 0.18404,0.98292 C 0.06524,1.00516 -0.06522,1.00517 -0.18404,0.98292 C -0.20223,0.97951 -0.21955,0.97575 -0.23596,0.97176 Z" id="parallel_60.0_back"/>
      
      <path d="M -0.17175,-0.98514 C -0.12863,-0.99266 -0.07445,-0.90761 -0.01984,-0.74633 C 0.04286,-0.56113 0.10047,-0.29218 0.13829,-0.00791 C 0.17571,0.27329 0.19021,0.54278 0.17820,0.73333 C 0.16781,0.89813 0.13838,0.99131 0.09555,0.99542 C 0.10151,0.99485 0.10747,0.99423 0.11342,0.99355 C 0.15614,0.98867 0.18498,0.89189 0.19424,0.72181 C 0.20486,0.52659 0.18873,0.25241 0.14990,-0.03125 C 0.11151,-0.31174 0.05455,-0.57499 -0.00681,-0.75564 C -0.05990,-0.91197 -0.11228,-0.99457 -0.15401,-0.98807 C -0.15993,-0.98715 -0.16584,-0.98617 -0.17175,-0.98514 Z"/>
      
      <path d="M -0.44352,-0.89627 C -0.34282,-0.94610 -0.20802,-0.90067 -0.06768,-0.76946 C 0.08622,-0.62557 0.23283,-0.39162 0.33523,-0.12644 C 0.43680,0.13658 0.48533,0.40559 0.46881,0.61392 C 0.45363,0.80543 0.38471,0.92985 0.27675,0.96094 C 0.28315,0.95910 0.28942,0.95722 0.29556,0.95532 C 0.40179,0.92246 0.46900,0.79720 0.48299,0.60575 C 0.49830,0.39610 0.44846,0.12589 0.34580,-0.13768 C 0.24399,-0.39909 0.09968,-0.62971 -0.05176,-0.77303 C -0.19116,-0.90497 -0.32524,-0.95215 -0.42584,-0.90480 C -0.43187,-0.90196 -0.43776,-0.89912 -0.44352,-0.89627 Z"/>
      
      <path d="M -0.73082,-0.68257 C -0.61194,-0.80985 -0.42384,-0.84866 -0.21049,-0.78985 C 0.01479,-0.72774 0.24676,-0.56274 0.42544,-0.33752 C 0.60412,-0.11231 0.71203,0.15111 0.72127,0.38462 C 0.73002,0.60575 0.64945,0.78010 0.49846,0.86691 C 0.50524,0.86301 0.51184,0.85911 0.51827,0.85522 C 0.66516,0.76620 0.74233,0.59205 0.73204,0.37261 C 0.72108,0.13880 0.61187,-0.12437 0.43251,-0.34908 C 0.25475,-0.57179 0.02516,-0.73529 -0.19804,-0.79808 C -0.40871,-0.85735 -0.59517,-0.82165 -0.71493,-0.69919 C -0.72019,-0.69382 -0.72549,-0.68828 -0.73082,-0.68257 Z"/>
      
      <path d="M -0.96452,-0.26403 C -0.91802,-0.43388 -0.79893,-0.57111 -0.62752,-0.65235 C -0.45452,-0.73434 -0.23905,-0.75417 -0.01841,-0.70838 C 0.20617,-0.66178 0.42158,-0.55021 0.58922,-0.39366 C 0.75391,-0.23987 0.86203,-0.05244 0.89488,0.13616 C 0.92742,0.32303 0.88405,0.49947 0.77214,0.63545 C 0.77799,0.62834 0.78374,0.62116 0.78939,0.61389 C 0.89593,0.47690 0.93491,0.30142 0.89984,0.11660 C 0.86444,-0.07001 0.75570,-0.25477 0.59201,-0.40642 C 0.42545,-0.56072 0.21250,-0.67101 -0.00963,-0.71802 C -0.22793,-0.76423 -0.44157,-0.74644 -0.61441,-0.66769 C -0.78560,-0.58970 -0.90644,-0.45661 -0.95686,-0.29055 C -0.95953,-0.28175 -0.96209,-0.27290 -0.96452,-0.26403 Z"/>
      
      <path d="M -0.95293,0.30318 C -1.00990,0.12413 -0.98520,-0.06733 -0.88320,-0.23740 C -0.78067,-0.40834 -0.60667,-0.54662 -0.39220,-0.62758 C -0.17420,-0.70987 0.07110,-0.72747 0.29862,-0.67713 C 0.52245,-0.62761 0.71440,-0.51557 0.84027,-0.36102 C 0.96551,-0.20724 1.01728,-0.02126 0.98645,0.16409 C 0.98807,0.15430 0.98956,0.14450 0.99089,0.13467 C 1.01580,-0.04861 0.96022,-0.23101 0.83369,-0.38119 C 0.70646,-0.53222 0.51548,-0.64119 0.29389,-0.68916 C 0.06878,-0.73789 -0.17337,-0.72053 -0.38923,-0.64016 C -0.60169,-0.56106 -0.77517,-0.42596 -0.87955,-0.25833 C -0.98336,-0.09162 -1.01234,0.09685 -0.96153,0.27470 C -0.95881,0.28423 -0.95594,0.29373 -0.95293,0.30318 Z"/>
      
      <path d="M -0.70110,0.71306 C -0.82145,0.59474 -0.87936,0.42987 -0.86517,0.24595 C -0.85081,0.05975 -0.76345,-0.13456 -0.61796,-0.30383 C -0.46973,-0.47628 -0.27061,-0.61177 -0.05578,-0.68634 C 0.15508,-0.75954 0.36789,-0.76948 0.54636,-0.71449 C 0.72266,-0.66017 0.85475,-0.54579 0.92064,-0.39040 C 0.91720,-0.39852 0.91365,-0.40660 0.90999,-0.41463 C 0.84110,-0.56582 0.70823,-0.67614 0.53293,-0.72768 C 0.35490,-0.78002 0.14379,-0.76860 -0.06513,-0.69530 C -0.27796,-0.62062 -0.47526,-0.48638 -0.62285,-0.31581 C -0.76772,-0.14839 -0.85584,0.04380 -0.87251,0.22861 C -0.88892,0.41059 -0.83507,0.57469 -0.71972,0.69426 C -0.71360,0.70061 -0.70739,0.70688 -0.70110,0.71306 Z"/>
      
      <path d="M -0.43784,0.89905 C -0.58105,0.82931 -0.66283,0.66994 -0.66456,0.45703 C -0.66642,0.22918 -0.57645,-0.03861 -0.41774,-0.27751 C -0.25903,-0.51641 -0.04704,-0.70314 0.16372,-0.78975 C 0.36067,-0.87068 0.53928,-0.85706 0.65908,-0.75207 C 0.65367,-0.75681 0.64811,-0.76158 0.64239,-0.76638 C 0.52164,-0.86759 0.34358,-0.87829 0.14797,-0.79600 C -0.06114,-0.70803 -0.27103,-0.52194 -0.42862,-0.28474 C -0.58619,-0.04755 -0.67638,0.21806 -0.67643,0.44492 C -0.67647,0.65714 -0.59760,0.81713 -0.45750,0.88921 C -0.45110,0.89250 -0.44455,0.89578 -0.43784,0.89905 Z"/>
      
      <path d="M -0.22871,0.97349 C -0.32155,0.95168 -0.38223,0.83683 -0.39813,0.65250 C -0.41573,0.44849 -0.37691,0.17768 -0.29135,-0.09233 C -0.20578,-0.36233 -0.08154,-0.60606 0.05035,-0.76270 C 0.16951,-0.90424 0.28527,-0.96318 0.37372,-0.92754 C 0.36773,-0.92995 0.36181,-0.93227 0.35597,-0.93450 C 0.26781,-0.96808 0.15277,-0.90770 0.03441,-0.76555 C -0.09639,-0.60846 -0.21964,-0.36546 -0.30484,-0.09661 C -0.39004,0.17225 -0.42924,0.44187 -0.41280,0.64563 C -0.39792,0.83001 -0.33865,0.94563 -0.24723,0.96896 C -0.24097,0.97055 -0.23480,0.97206 -0.22871,0.97349 Z"/>
      
      <path d="M -0.05345,0.99857 C -0.09036,0.99659 -0.11032,0.81522 -0.10612,0.51926 C -0.10154,0.19631 -0.06899,-0.20991 -0.02208,-0.52948 C 0.02092,-0.82236 0.06951,-0.99827 0.10627,-0.99434 C 0.10037,-0.99497 0.09447,-0.99555 0.08856,-0.99607 C 0.05278,-0.99925 0.00515,-0.82294 -0.03727,-0.53004 C -0.08351,-0.21075 -0.11601,0.19471 -0.12121,0.51730 C -0.12598,0.81324 -0.10704,0.99490 -0.07121,0.99746 C -0.06530,0.99788 -0.05938,0.99825 -0.05345,0.99857 Z"/>
    </g>
    <g id="front" style="opacity:1; fill:url(#LightSpot_front)">
      <path d="M 0.28026,-0.95993 C 0.10142,-1.01214 -0.10142,-1.01214 -0.28026,-0.95993 C -0.29721,-0.95497 -0.31493,-0.94932 -0.33326,-0.94283 C -0.23044,-0.97918 -0.11609,-0.99816 -0.00000,-0.99816 C 0.11609,-0.99816 0.23044,-0.97918 0.33326,-0.94283 C 0.31492,-0.94932 0.29721,-0.95498 0.28026,-0.95993 Z" id="parallel_-40.0_front"/>
      <path d="M 0.62763,-0.77851 C 0.47327,-0.90296 0.24301,-0.97510 -0.00000,-0.97510 C -0.24301,-0.97510 -0.47327,-0.90296 -0.62763,-0.77851 C -0.63547,-0.77219 -0.64322,-0.76575 -0.65087,-0.75919 C -0.54877,-0.84672 -0.40881,-0.91160 -0.24961,-0.94517 C -0.08723,-0.97941 0.08723,-0.97941 0.24961,-0.94517 C 0.40881,-0.91160 0.54877,-0.84672 0.65087,-0.75919 C 0.64322,-0.76575 0.63547,-0.77219 0.62763,-0.77851 Z" id="parallel_-30.0_front"/>
      <path d="M 0.81647,-0.57739 C 0.72146,-0.71174 0.55130,-0.81768 0.34043,-0.87371 C 0.12228,-0.93168 -0.12227,-0.93168 -0.34043,-0.87372 C -0.55130,-0.81768 -0.72146,-0.71174 -0.81647,-0.57739 C -0.82137,-0.57046 -0.82618,-0.56347 -0.83090,-0.55642 C -0.73786,-0.69536 -0.56535,-0.80563 -0.34950,-0.86408 C -0.12590,-0.92464 0.12590,-0.92464 0.34950,-0.86408 C 0.56535,-0.80563 0.73786,-0.69536 0.83090,-0.55642 C 0.82618,-0.56347 0.82137,-0.57046 0.81647,-0.57739 Z" id="parallel_-20.0_front"/>
      
      <path d="M 0.99003,-0.14086 C 0.96894,-0.28907 0.86068,-0.42750 0.68547,-0.53016 C 0.50070,-0.63842 0.25526,-0.69883 0.00000,-0.69883 C -0.25526,-0.69883 -0.50071,-0.63842 -0.68547,-0.53016 C -0.86068,-0.42750 -0.96894,-0.28907 -0.99003,-0.14086 C -0.99111,-0.13329 -0.99208,-0.12585 -0.99295,-0.11855 C -0.97509,-0.26815 -0.86802,-0.40853 -0.69211,-0.51286 C -0.50648,-0.62294 -0.25831,-0.68451 -0.00000,-0.68451 C 0.25831,-0.68451 0.50648,-0.62294 0.69211,-0.51285 C 0.86802,-0.40853 0.97509,-0.26815 0.99295,-0.11855 C 0.99208,-0.12585 0.99111,-0.13329 0.99003,-0.14086 Z" id="parallel_0.0_front"/>
      
      <path d="M 0.95487,0.29702 C 0.99355,0.17268 0.95828,0.04442 0.85477,-0.06690 C 0.74437,-0.18564 0.56348,-0.27744 0.34528,-0.32541 C 0.12289,-0.37431 -0.12289,-0.37431 -0.34529,-0.32541 C -0.56348,-0.27744 -0.74437,-0.18564 -0.85478,-0.06690 C -0.95828,0.04443 -0.99355,0.17268 -0.95487,0.29702 C -0.95265,0.30417 -0.95039,0.31116 -0.94810,0.31799 C -0.98964,0.19411 -0.95669,0.06576 -0.85463,-0.04592 C -0.74572,-0.16509 -0.56528,-0.25748 -0.34685,-0.30586 C -0.12361,-0.35530 0.12360,-0.35530 0.34685,-0.30586 C 0.56528,-0.25748 0.74572,-0.16510 0.85463,-0.04592 C 0.95669,0.06576 0.98964,0.19411 0.94810,0.31799 C 0.95047,0.31089 0.95273,0.30390 0.95487,0.29702 Z" id="parallel_20.0_front"/>
      
      <path d="M 0.73002,0.68343 C 0.82762,0.57918 0.84496,0.45827 0.77826,0.34714 C 0.70757,0.22933 0.54872,0.13290 0.34032,0.08137 C 0.12422,0.02793 -0.12421,0.02793 -0.34031,0.08137 C -0.54872,0.13290 -0.70757,0.22933 -0.77826,0.34714 C -0.84496,0.45827 -0.82762,0.57917 -0.73002,0.68343 C -0.72464,0.68917 -0.71918,0.69487 -0.71363,0.70052 C -0.81427,0.59800 -0.83479,0.47805 -0.77066,0.36735 C -0.70270,0.25004 -0.54583,0.15365 -0.33877,0.10207 C -0.12386,0.04853 0.12385,0.04852 0.33876,0.10206 C 0.54582,0.15365 0.70269,0.25004 0.77066,0.36735 C 0.83479,0.47805 0.81427,0.59799 0.71363,0.70052 C 0.71916,0.69489 0.72462,0.68919 0.73002,0.68343 Z" id="parallel_40.0_front"/>
      
      <path d="M 0.23596,0.97176 C 0.38537,0.93548 0.49485,0.86676 0.53412,0.78469 C 0.57214,0.70524 0.54056,0.62125 0.44757,0.55466 C 0.34440,0.48077 0.17769,0.43688 0.00001,0.43688 C -0.17768,0.43688 -0.34439,0.48077 -0.44757,0.55465 C -0.54056,0.62125 -0.57214,0.70524 -0.53412,0.78469 C -0.49485,0.86676 -0.38537,0.93548 -0.23596,0.97176 C -0.21955,0.97575 -0.20223,0.97951 -0.18404,0.98292 C -0.34090,0.95355 -0.46171,0.88842 -0.51057,0.80700 C -0.55742,0.72890 -0.53305,0.64418 -0.44413,0.57623 C -0.34512,0.50057 -0.17847,0.45508 0.00000,0.45508 C 0.17848,0.45508 0.34512,0.50057 0.44413,0.57623 C 0.53305,0.64418 0.55742,0.72890 0.51057,0.80699 C 0.46171,0.88842 0.34090,0.95355 0.18404,0.98292 C 0.20063,0.97981 0.21797,0.97613 0.23596,0.97176 Z" id="parallel_60.0_front"/>
      
      
      
      <path d="M 0.09555,0.99542 C 0.05357,0.99945 0.00150,0.91765 -0.05115,0.76469 C -0.11409,0.58181 -0.17225,0.31355 -0.21073,0.02847 C -0.24920,-0.25661 -0.26424,-0.53070 -0.25203,-0.72373 C -0.24182,-0.88520 -0.21329,-0.97790 -0.17175,-0.98514 C -0.16585,-0.98617 -0.15994,-0.98715 -0.15401,-0.98807 C -0.19504,-0.98167 -0.22308,-0.88961 -0.23293,-0.72847 C -0.24473,-0.53538 -0.22937,-0.26042 -0.19075,0.02571 C -0.15214,0.31184 -0.09406,0.58105 -0.03150,0.76412 C 0.02072,0.91691 0.07217,0.99826 0.11342,0.99355 C 0.10747,0.99423 0.10151,0.99485 0.09555,0.99542 Z"/>
      
      <path d="M 0.27675,0.96094 C 0.17453,0.99038 0.04461,0.93403 -0.08818,0.80253 C -0.23426,0.65786 -0.37194,0.43400 -0.46962,0.18212 C -0.56730,-0.06975 -0.61656,-0.32789 -0.60622,-0.53323 C -0.59681,-0.71987 -0.53886,-0.84909 -0.44352,-0.89627 C -0.43755,-0.89922 -0.43165,-0.90206 -0.42584,-0.90480 C -0.52238,-0.85936 -0.58112,-0.73015 -0.59056,-0.54217 C -0.60088,-0.33643 -0.55131,-0.07721 -0.45320,0.17577 C -0.35509,0.42875 -0.21692,0.65360 -0.07058,0.79858 C 0.06313,0.93104 0.19363,0.98686 0.29556,0.95532 C 0.28942,0.95722 0.28315,0.95910 0.27675,0.96094 Z"/>
      
      <path d="M 0.49846,0.86691 C 0.36482,0.94375 0.18566,0.94642 -0.00567,0.87434 C -0.20673,0.79859 -0.40644,0.64588 -0.56391,0.44739 C -0.72138,0.24891 -0.82468,0.01970 -0.85272,-0.19333 C -0.87939,-0.39604 -0.83605,-0.56991 -0.73082,-0.68257 C -0.72549,-0.68828 -0.72019,-0.69382 -0.71493,-0.69919 C -0.82350,-0.58818 -0.86933,-0.41392 -0.84362,-0.20945 C -0.81659,0.00554 -0.71252,0.23778 -0.55307,0.43876 C -0.39361,0.63975 -0.19114,0.79392 0.01208,0.86914 C 0.20534,0.94068 0.38546,0.93570 0.51827,0.85522 C 0.51158,0.85927 0.50498,0.86317 0.49846,0.86691 Z"/>
      
      <path d="M 0.77214,0.63545 C 0.65874,0.77325 0.48208,0.86084 0.27297,0.88289 C 0.05845,0.90551 -0.17602,0.85767 -0.38749,0.74814 C -0.59896,0.63861 -0.77332,0.47471 -0.87861,0.28644 C -0.98125,0.10293 -1.01163,-0.09190 -0.96452,-0.26403 C -0.96209,-0.27290 -0.95953,-0.28174 -0.95686,-0.29055 C -1.00943,-0.11743 -0.98212,0.08048 -0.87980,0.26761 C -0.77479,0.45966 -0.59793,0.62725 -0.38263,0.73876 C -0.16733,0.85028 0.07160,0.89803 0.28905,0.87299 C 0.50093,0.84860 0.67832,0.75671 0.78939,0.61389 C 0.78374,0.62116 0.77799,0.62834 0.77214,0.63545 Z"/>
      
      
      <path d="M 0.99202,-0.12609 C 1.01484,0.05347 0.95918,0.24425 0.83453,0.41347 C 0.70688,0.58677 0.51516,0.72624 0.29383,0.80684 C 0.07250,0.88744 -0.16401,0.90392 -0.37321,0.85329 C -0.57748,0.80386 -0.74279,0.69356 -0.84079,0.54137 C -0.84595,0.53335 -0.85100,0.52526 -0.85593,0.51710 C -0.76092,0.67436 -0.59530,0.78936 -0.38836,0.84170 C -0.17636,0.89532 0.06480,0.87958 0.29040,0.79743 C 0.51600,0.71527 0.71080,0.57224 0.83868,0.39485 C 0.96350,0.22169 1.01638,0.02711 0.98801,-0.15441 C 0.98948,-0.14499 0.99082,-0.13555 0.99202,-0.12609 Z"/>
      <path d="M 0.92064,-0.39040 C 0.98886,-0.22954 0.98180,-0.03492 0.90067,0.15882 C 0.81724,0.35802 0.66116,0.54281 0.46170,0.67852 C 0.26225,0.81424 0.03307,0.89160 -0.18286,0.89609 C -0.39287,0.90045 -0.57650,0.83557 -0.70110,0.71306 C -0.70739,0.70688 -0.71360,0.70061 -0.71972,0.69426 C -0.59692,0.82157 -0.41231,0.89024 -0.19959,0.88769 C 0.01924,0.88506 0.25255,0.80724 0.45536,0.66924 C 0.65818,0.53124 0.81621,0.34278 0.89899,0.14019 C 0.97945,-0.05674 0.98333,-0.25367 0.90999,-0.41463 C 0.91365,-0.40660 0.91720,-0.39853 0.92064,-0.39040 Z"/>
      
      <path d="M 0.65908,-0.75207 C 0.76771,-0.65688 0.82011,-0.49342 0.80631,-0.29252 C 0.79171,-0.07980 0.70400,0.15883 0.56158,0.37318 C 0.41918,0.58751 0.23321,0.76081 0.04280,0.85669 C -0.13703,0.94725 -0.30800,0.96229 -0.43784,0.89905 C -0.44455,0.89578 -0.45111,0.89250 -0.45750,0.88921 C -0.32837,0.95564 -0.15665,0.94252 0.02475,0.85225 C 0.21697,0.75660 0.40526,0.58168 0.54928,0.36491 C 0.69329,0.14813 0.78155,-0.09323 0.79523,-0.30751 C 0.80813,-0.50971 0.75367,-0.67310 0.64239,-0.76638 C 0.64811,-0.76158 0.65367,-0.75681 0.65908,-0.75207 Z"/>
      
      <path d="M 0.37372,-0.92754 C 0.45852,-0.89337 0.51224,-0.77467 0.52452,-0.59396 C 0.53825,-0.39205 0.49913,-0.12954 0.41629,0.13188 C 0.33344,0.39334 0.21421,0.63050 0.08668,0.78766 C -0.02744,0.92831 -0.13972,0.99440 -0.22871,0.97349 C -0.23480,0.97206 -0.24097,0.97055 -0.24723,0.96896 C -0.15891,0.99149 -0.04682,0.92625 0.06747,0.78559 C 0.19539,0.62817 0.31532,0.38956 0.39873,0.12637 C 0.48213,-0.13682 0.52153,-0.40096 0.50763,-0.60333 C 0.49521,-0.78415 0.44116,-0.90205 0.35597,-0.93450 C 0.36181,-0.93227 0.36773,-0.92995 0.37372,-0.92754 Z"/>
      
      <path d="M 0.10627,-0.99434 C 0.14211,-0.99051 0.16182,-0.81616 0.15855,-0.53055 C 0.15476,-0.20015 0.12092,0.22211 0.07204,0.54893 C 0.02978,0.83147 -0.01745,1.00050 -0.05345,0.99857 C -0.05938,0.99825 -0.06530,0.99788 -0.07121,0.99746 C -0.03622,0.99996 0.01015,0.83114 0.05194,0.54845 C 0.10033,0.22109 0.13425,-0.20222 0.13862,-0.53312 C 0.14239,-0.81889 0.12351,-0.99296 0.08856,-0.99607 C 0.09444,-0.99555 0.10035,-0.99497 0.10627,-0.99434 Z"/>
    </g>
  </g>
</svg>