<?xml version="1.0" encoding="UTF-8" standalone="no"?>
<!-- Created with Inkscape (http://www.inkscape.org/) -->

<svg
   width="35.423397mm"
   height="66.395569mm"
   viewBox="0 0 35.423397 66.395569"
   version="1.1"
   id="svg5"
   inkscape:version="1.1 (c4e8f9e, 2021-05-24)"
   sodipodi:docname="help.svg"
   xmlns:inkscape="http://www.inkscape.org/namespaces/inkscape"
   xmlns:sodipodi="http://sodipodi.sourceforge.net/DTD/sodipodi-0.dtd"
   xmlns="http://www.w3.org/2000/svg"
   xmlns:svg="http://www.w3.org/2000/svg">
  <sodipodi:namedview
     id="namedview7"
     pagecolor="#ffffff"
     bordercolor="#666666"
     borderopacity="1.0"
     inkscape:pageshadow="2"
     inkscape:pageopacity="0.0"
     inkscape:pagecheckerboard="0"
     inkscape:document-units="mm"
     showgrid="false"
     inkscape:zoom="0.5247124"
     inkscape:cx="24.775477"
     inkscape:cy="14.293544"
     inkscape:window-width="1312"
     inkscape:window-height="785"
     inkscape:window-x="0"
     inkscape:window-y="25"
     inkscape:window-maximized="0"
     inkscape:current-layer="layer1" />
  <defs
     id="defs2" />
  <g
     inkscape:label="Layer 1"
     inkscape:groupmode="layer"
     id="layer1"
     transform="translate(-60.865846,-227.61581)">
    <path
       style="fill:#000000;stroke-width:0.176389"
       d="m 74.065792,293.70955 c -1.7586,-0.6453 -3.42343,-2.00596 -4.13279,-3.37772 -0.55344,-1.07022 -0.82768,-2.91293 -0.6112,-4.10677 0.855,-4.71498 5.57387,-7.15402 9.80813,-5.0695 1.3774,0.67809 2.71468,2.10718 3.26036,3.48422 0.61335,1.54779 0.58479,3.83042 -0.0653,5.21803 -0.62559,1.33536 -1.38691,2.28364 -2.3844,2.96993 -1.64392,1.13104 -4.16452,1.50938 -5.87483,0.88181 z m 0.0186,-18.19763 c -2.29533,-0.62133 -4.49251,-2.21551 -5.83575,-4.23419 -0.29049,-0.43656 -0.73816,-1.42875 -0.99482,-2.20486 -0.64147,-1.93969 -0.68898,-4.86181 -0.10899,-6.70278 0.88014,-2.79367 3.41182,-6.04717 9.73996,-12.51694 2.6605,-2.72006 5.24695,-5.44124 5.74766,-6.04706 1.17221,-1.41831 1.7909,-2.69793 2.03665,-4.21236 0.25865,-1.59388 -0.0929,-3.32337 -1.02951,-5.06465 -1.39532,-2.59413 -3.39987,-3.30338 -6.28523,-2.22383 -1.98023,0.7409 -3.26067,2.53245 -3.6561,5.11552 -0.17458,1.14037 -0.15727,1.58569 0.11992,3.0868 0.17817,0.9648 0.35485,2.41876 0.39263,3.23101 0.0634,1.36387 0.0273,1.56091 -0.4725,2.57616 -1.62719,3.30528 -5.87597,4.8501 -9.18577,3.33986 -2.923355,-1.33391 -4.384315,-4.98169 -3.361015,-8.39192 1.05004,-3.49937 4.196995,-7.45016 7.895635,-9.91244 2.49581,-1.66153 5.05318,-2.72173 8.2047,-3.40139 2.18352,-0.4709 5.80003,-0.43768 7.57147,0.0695 2.71281,0.77678 5.07158,2.15896 7.09772,4.15908 2.15207,2.12443 3.34263,4.3606 3.97507,7.46615 0.8247,4.04962 0.23133,6.98917 -2.05951,10.20285 -1.4129,1.98207 -3.38665,4.13184 -5.26505,5.73457 -4.94784,4.22171 -7.82731,7.24484 -8.8139,9.25361 -0.76708,1.56184 -0.94394,2.97627 -0.5441,4.35164 0.38469,1.32331 0.78929,1.65635 1.97753,1.62779 1.4325,-0.0344 2.57224,-0.7542 3.83156,-2.41974 0.56139,-0.74248 1.12568,-1.34995 1.25399,-1.34995 0.33891,0 1.83827,1.36641 2.14035,1.95056 0.33546,0.64871 0.14657,1.14822 -0.83829,2.21678 -1.72641,1.87314 -4.37044,3.449 -6.92814,4.12922 -2.08732,0.55513 -4.91647,0.62834 -6.60617,0.17096 z"
       id="path1572" />
  </g>
</svg>
